<svg height="512pt" viewBox="0 0 512 512" width="512pt" xmlns="http://www.w3.org/2000/svg"><path d="m256 512c-68.378906 0-132.667969-26.628906-181.019531-74.980469-48.351563-48.351562-74.980469-112.640625-74.980469-181.019531s26.628906-132.667969 74.980469-181.019531c48.351562-48.351563 112.640625-74.980469 181.019531-74.980469s132.667969 26.628906 181.019531 74.980469c48.351563 48.351562 74.980469 112.640625 74.980469 181.019531s-26.628906 132.667969-74.980469 181.019531c-48.351562 48.351563-112.640625 74.980469-181.019531 74.980469zm0-478.609375c-122.746094 0-222.609375 99.863281-222.609375 222.609375s99.863281 222.609375 222.609375 222.609375 222.609375-99.863281 222.609375-222.609375-99.863281-222.609375-222.609375-222.609375zm0 0" fill="#ffc033"/><path d="m493.40625 316.441406-130.847656-95.066406 49.980468-153.816406c2.234376-6.878906-.214843-14.414063-6.066406-18.667969-5.851562-4.25-13.773437-4.25-19.625 0l-130.847656 95.066406-130.847656-95.066406c-5.851563-4.25-13.773438-4.25-19.625 0-5.851563 4.253906-8.300782 11.789063-6.066406 18.667969l49.980468 153.820312-130.847656 95.0625c-5.851562 4.253906-8.300781 11.789063-6.0625 18.667969 2.234375 6.878906 8.644531 11.535156 15.878906 11.535156h161.730469l49.980469 153.820313c2.234375 6.878906 8.644531 11.535156 15.878906 11.535156s13.644531-4.65625 15.878906-11.535156l49.980469-153.820313h161.730469c7.234375 0 13.644531-4.660156 15.878906-11.539062 2.238281-6.875-.210938-14.410157-6.0625-18.664063zm-128.503906-210.332031-30.746094 94.632813-49.753906-36.148438zm-217.804688 0 80.5 58.484375-49.753906 36.144531zm-67.304687 207.144531 80.496093-58.484375 19.003907 58.484375zm176.207031 128.023438-30.746094-94.632813h61.492188zm41.597656-128.023438h-83.195312l-25.707032-79.121094 67.304688-48.902343 67.304688 48.902343zm35.109375 0 19.003907-58.484375 80.496093 58.484375zm0 0" fill="#ee6e2f"/></svg>